ply
format ascii 1.0
comment Created by Blender 2.71 (sub 0) - www.blender.org, source file: ''
element vertex 114
property float x
property float y
property float z
property float nx
property float ny
property float nz
element face 224
property list uchar uint vertex_indices
end_header
0.000000 -76.500000 0.499997 0.000000 -0.970519 0.240974
-0.353600 -76.500000 0.353597 -0.170415 -0.970519 0.170385
0.353600 -76.500000 0.353597 0.170415 -0.970519 0.170415
0.000000 -76.500000 -0.500003 0.000000 -0.970519 -0.240974
0.353600 -76.500000 -0.353603 0.170415 -0.970519 -0.170385
-0.353600 -76.500000 -0.353603 -0.170415 -0.970519 -0.170415
0.500000 -76.500000 -0.000003 0.240974 -0.970519 0.000000
-0.500000 -76.500000 -0.000003 -0.240974 -0.970519 0.000000
1.715300 -74.436996 1.818797 0.907590 -0.240547 0.344035
2.285400 -74.500000 1.013397 0.898923 -0.210334 0.384289
1.884000 -74.036697 1.643397 0.766747 -0.016480 0.641713
1.678400 -74.500000 1.852897 0.829859 -0.462416 0.312204
-1.678300 -74.500000 1.852897 -0.850215 -0.426160 0.309000
-1.925700 -73.865700 1.594197 -0.933226 -0.046327 0.356212
-2.285400 -74.500000 1.013397 -0.896268 -0.210913 0.390118
0.000000 76.500000 2.500003 -0.000214 0.630512 0.776147
0.008500 -71.562500 2.499997 -0.030915 0.685720 0.727195
0.615600 -71.660896 2.422997 0.401105 0.621113 0.673269
-1.715300 -72.563004 1.818797 -0.854335 0.186956 0.484878
-1.767800 76.500000 1.767803 -0.548967 0.630268 0.548906
-1.884000 -72.963303 1.643397 -0.783319 -0.001373 0.621570
1.960900 -73.538002 1.550797 0.937101 -0.014588 0.348704
2.500000 -74.500000 -0.000003 0.981811 -0.189764 -0.000366
2.500000 76.500000 0.000003 0.776147 0.630512 -0.000305
1.767800 76.500000 1.767803 0.548662 0.630726 0.548723
1.797000 -72.726196 1.737997 0.883511 0.175665 0.434156
1.156100 -71.936401 2.216597 0.718925 0.426405 0.548875
-0.804400 -71.733704 2.367097 -0.568102 0.532121 0.627735
-2.500000 76.500000 0.000003 -0.776147 0.630512 0.000305
-2.500000 -74.500000 -0.000003 -0.981811 -0.189764 0.000366
1.715300 -74.436996 -1.818803 0.907407 -0.241157 -0.344066
2.285400 -74.500000 -1.013403 0.896695 -0.212653 -0.388165
1.678300 -74.500000 -1.852903 0.821528 -0.488021 -0.294778
1.884000 -74.036697 -1.643403 0.766747 -0.016480 -0.641713
1.960900 -73.538002 -1.550803 0.937101 -0.014588 -0.348704
-0.804400 -71.733704 -2.367103 -0.567583 0.531632 -0.628620
0.000000 76.500000 -2.499997 0.000275 0.630512 -0.776147
0.008500 -71.562500 -2.500003 -0.030030 0.686422 -0.726554
-1.678400 -74.500000 -1.852903 -0.856685 -0.399915 -0.325755
-2.285400 -74.500000 -1.013403 -0.898465 -0.209235 -0.385876
-1.925700 -73.865700 -1.594203 -0.931059 -0.050630 -0.361309
1.767800 76.500000 -1.767797 0.548967 0.630268 -0.548967
1.797000 -72.726196 -1.738003 0.883511 0.175665 -0.434156
1.156100 -71.936401 -2.216603 0.718925 0.426405 -0.548875
0.615600 -71.660896 -2.423003 0.400403 0.621815 -0.673025
-1.767800 76.500000 -1.767797 -0.548692 0.630726 -0.548692
-1.884000 -72.963303 -1.643403 -0.739555 -0.002106 -0.673086
-1.715300 -72.563004 -1.818803 -0.854427 0.186651 -0.484848
1.106800 -75.101196 -2.138003 0.586322 -0.719016 -0.373089
0.899000 -73.991096 -39.025005 0.858669 -0.468307 -0.208197
-0.982900 -73.788399 -39.025005 -0.938688 -0.275063 -0.207709
-1.119600 -75.092400 -2.134403 -0.582781 -0.714103 -0.387799
0.019800 -75.443298 -2.263503 0.015656 -0.885372 -0.464553
0.288400 -74.482903 -39.025005 0.275277 -0.938322 -0.209143
-0.491100 -74.399002 -39.025005 -0.469100 -0.858119 -0.208655
-0.899000 -73.008904 -39.025005 -0.858608 0.468551 -0.207801
0.899000 -73.991096 39.024998 0.858669 -0.468307 0.208197
1.119600 -75.092400 2.134397 0.582598 -0.714621 0.387097
-0.982900 -73.788399 39.024998 -0.938688 -0.275094 0.207678
-1.106800 -75.101196 2.137997 -0.586535 -0.718467 0.373791
0.288400 -74.482903 39.024998 0.275307 -0.938322 0.209143
-0.019800 -75.443298 2.263497 -0.015870 -0.885372 0.464553
-0.491100 -74.399002 39.024998 -0.469131 -0.858089 0.208655
-0.899000 -73.008904 39.024998 -0.858608 0.468581 0.207801
-1.353600 -75.914200 1.353597 -0.522904 -0.707022 0.476058
-1.914200 -75.914200 -0.000003 -0.722526 -0.691305 0.000000
1.353500 -75.914200 1.353597 0.521439 -0.711844 0.470473
0.000000 -75.914200 1.914197 -0.006714 -0.762810 0.646565
1.914200 -75.914200 -0.000003 0.722526 -0.691305 0.000000
1.353600 -75.914200 -1.353603 0.522904 -0.707022 -0.476058
-1.353600 -75.914200 -1.353603 -0.521439 -0.711814 -0.470473
0.000000 -75.914200 -1.914203 0.006714 -0.762810 -0.646565
0.491100 -72.600998 39.024998 0.468947 0.858241 0.208533
0.982900 -73.211601 39.024998 0.938688 0.275033 0.207801
-0.288400 -72.517097 39.024998 -0.275430 0.938414 0.208502
0.982900 -73.211601 -39.025005 0.938688 0.275002 -0.207801
0.491100 -72.600998 -39.025005 0.468917 0.858241 -0.208533
-0.288400 -72.517097 -39.025005 -0.275399 0.938414 -0.208533
0.010600 -73.522301 -40.000004 0.100864 -0.203284 -0.973876
-0.004600 -73.524300 -40.000004 -0.040468 -0.221046 -0.974395
-0.018000 -73.516899 -40.000004 -0.191504 -0.153172 -0.969451
0.021700 -73.511803 -40.000004 0.206580 -0.106510 -0.972594
0.018000 -73.483101 -40.000004 0.191565 0.153264 -0.969420
-0.010600 -73.477699 -40.000004 -0.100955 0.203375 -0.973876
0.004600 -73.475700 -40.000004 0.040437 0.221076 -0.974395
0.024500 -73.496803 -40.000004 0.238929 0.036653 -0.970336
-0.024500 -73.503197 -40.000004 -0.238960 -0.036622 -0.970306
-0.021700 -73.488197 -40.000004 -0.206732 0.106632 -0.972564
-0.203500 -72.806297 -39.715904 -0.208441 0.710532 -0.672048
-0.634400 -73.153397 -39.715904 -0.649739 0.354900 -0.672201
0.346600 -72.865601 -39.715904 0.355083 0.649525 -0.672292
0.634400 -73.846603 -39.715904 0.649739 -0.354900 -0.672201
0.693700 -73.296501 -39.715904 0.710196 0.208411 -0.672414
0.203500 -74.193703 -39.715904 0.208441 -0.710532 -0.672048
-0.346600 -74.134399 -39.715904 -0.355083 -0.649525 -0.672292
-0.693700 -73.703499 -39.715904 -0.710196 -0.208411 -0.672414
-0.018000 -73.516899 39.999996 -0.164403 -0.152745 0.974487
-0.004600 -73.524300 39.999996 -0.025971 -0.244423 0.969298
0.010600 -73.522301 39.999996 0.098910 -0.220771 0.970275
0.021700 -73.511803 39.999996 0.201727 -0.115940 0.972533
0.004600 -73.475700 39.999996 0.026032 0.244392 0.969298
-0.010600 -73.477699 39.999996 -0.098880 0.220710 0.970306
0.018000 -73.483101 39.999996 0.164464 0.152806 0.974456
-0.021700 -73.488197 39.999996 -0.201697 0.115909 0.972533
-0.024500 -73.503197 39.999996 -0.225654 -0.025513 0.973846
0.024500 -73.496803 39.999996 0.225715 0.025513 0.973846
0.693700 -73.296501 39.715897 0.710532 0.208411 0.672048
0.346600 -72.865601 39.715897 0.354747 0.649678 0.672292
0.634400 -73.846603 39.715897 0.649648 -0.355022 0.672201
-0.634400 -73.153397 39.715897 -0.649648 0.355022 0.672201
-0.203500 -72.806297 39.715897 -0.208258 0.710227 0.672414
-0.693700 -73.703499 39.715897 -0.710532 -0.208411 0.672048
-0.346600 -74.134399 39.715897 -0.354747 -0.649709 0.672292
0.203500 -74.193703 39.715897 0.208258 -0.710227 0.672414
3 0 1 2
3 3 4 5
3 5 4 6
3 5 6 7
3 7 6 2
3 7 2 1
3 8 9 10
3 8 11 9
3 12 13 14
3 15 16 17
3 18 19 20
3 9 21 10
3 22 23 9
3 9 23 24
3 9 24 21
3 21 24 25
3 15 17 24
3 24 17 26
3 24 26 25
3 19 18 15
3 15 18 27
3 15 27 16
3 28 29 19
3 19 29 14
3 19 14 20
3 20 14 13
3 30 31 32
3 30 33 31
3 31 33 34
3 35 36 37
3 38 39 40
3 41 23 22
3 41 22 31
3 41 31 34
3 41 34 42
3 41 42 43
3 41 43 44
3 41 44 37
3 41 37 36
3 29 28 39
3 39 28 45
3 39 45 40
3 40 45 46
3 36 35 45
3 45 35 47
3 45 47 46
3 48 49 32
3 49 30 32
3 40 50 38
3 50 51 38
3 48 52 53
3 48 53 49
3 51 50 54
3 54 52 51
3 53 52 54
3 55 50 47
3 47 50 40
3 47 40 46
3 11 56 57
3 11 8 56
3 12 58 13
3 12 59 58
3 60 61 57
3 56 60 57
3 62 58 59
3 59 61 62
3 62 61 60
3 20 13 18
3 18 13 58
3 18 58 63
3 64 14 65
3 29 65 14
3 9 11 66
3 66 11 57
3 66 57 67
3 67 57 61
3 67 61 64
3 64 61 59
3 64 59 14
3 14 59 12
3 22 9 68
3 68 9 66
3 68 66 6
3 6 66 2
3 65 7 64
3 64 7 1
3 64 1 67
3 1 0 67
3 67 0 66
3 66 0 2
3 69 31 68
3 22 68 31
3 39 38 70
3 70 38 51
3 70 51 71
3 71 51 52
3 71 52 69
3 69 52 48
3 69 48 31
3 31 48 32
3 29 39 65
3 65 39 70
3 65 70 7
3 7 70 5
3 68 6 69
3 69 6 4
3 69 4 71
3 71 4 3
3 71 3 70
3 70 3 5
3 72 73 26
3 21 25 73
3 73 25 26
3 18 63 27
3 27 63 74
3 27 74 16
3 10 21 8
3 8 21 73
3 8 73 56
3 16 74 17
3 17 74 72
3 17 72 26
3 43 75 76
3 75 42 34
3 43 42 75
3 37 77 35
3 35 77 55
3 35 55 47
3 49 75 30
3 30 75 34
3 30 34 33
3 43 76 44
3 44 76 77
3 44 77 37
3 24 19 15
3 19 24 28
3 28 24 23
3 28 23 45
3 45 23 41
3 45 41 36
3 78 79 80
3 81 78 80
3 82 83 84
3 81 80 85
3 85 80 86
3 85 86 82
3 82 86 87
3 82 87 83
3 88 84 83
3 88 83 89
3 90 84 88
3 87 89 83
3 91 81 92
3 92 81 85
3 92 85 90
3 90 85 82
3 90 82 84
3 89 55 88
3 88 55 77
3 88 77 90
3 90 77 76
3 90 76 92
3 92 76 75
3 92 75 91
3 91 75 49
3 93 79 78
3 93 78 91
3 94 79 93
3 81 91 78
3 89 87 95
3 95 87 86
3 95 86 94
3 94 86 80
3 94 80 79
3 91 49 93
3 93 49 53
3 93 53 94
3 94 53 54
3 94 54 95
3 95 54 50
3 95 50 89
3 89 50 55
3 96 97 98
3 96 98 99
3 100 101 102
3 101 103 102
3 102 103 104
3 102 104 105
3 105 104 96
3 105 96 99
3 102 106 107
3 105 108 106
3 105 106 102
3 99 108 105
3 109 103 110
3 110 103 101
3 110 101 107
3 107 101 100
3 107 100 102
3 63 109 74
3 74 109 110
3 74 110 72
3 72 110 107
3 72 107 73
3 73 107 106
3 73 106 56
3 56 106 108
3 96 111 112
3 104 109 111
3 104 111 96
3 103 109 104
3 108 99 113
3 113 99 98
3 113 98 112
3 112 98 97
3 112 97 96
3 56 108 60
3 60 108 113
3 60 113 62
3 62 113 112
3 62 112 58
3 58 112 111
3 58 111 63
3 63 111 109
